<mxfile host="app.diagrams.net" modified="2023-09-24T16:14:07.598Z" agent="Mozilla/5.0 (Windows NT 10.0; Win64; x64) AppleWebKit/537.36 (KHTML, like Gecko) Chrome/117.0.0.0 Safari/537.36" version="21.8.2" etag="cPKM6BQQ620YYkGHssqX" type="github">
  <diagram name="Page-1" id="SwJfzn5hwDD-15F7hBRG">
    <mxGraphModel>
      <root>
        <mxCell id="0" />
        <mxCell id="1" parent="0" />
      </root>
    </mxGraphModel>
  </diagram>
</mxfile>
